<svg width="21" height="20" viewBox="0 0 21 20" fill="none" xmlns="http://www.w3.org/2000/svg">
<path fill-rule="evenodd" clip-rule="evenodd" d="M4.35585 1.61739C5.69012 0.725854 7.2588 0.25 8.86352 0.25H8.86357C11.0154 0.250137 13.079 1.105 14.6006 2.62655C16.1221 4.14811 16.977 6.21174 16.9771 8.36355V8.36359C16.9771 9.96831 16.5013 11.537 15.6097 12.8713C15.4533 13.1054 15.2852 13.3305 15.1065 13.5459L20.0303 18.4697C20.3231 18.7626 20.3231 19.2374 20.0303 19.5303C19.7374 19.8232 19.2625 19.8232 18.9696 19.5303L14.0458 14.6065C13.4234 15.1232 12.7239 15.5467 11.9685 15.8596C10.4859 16.4737 8.85452 16.6344 7.28063 16.3213C5.70675 16.0082 4.26105 15.2355 3.12634 14.1008C1.99163 12.9661 1.21889 11.5204 0.905824 9.94648C0.592759 8.37259 0.753435 6.74122 1.36753 5.25866C1.98163 3.77609 3.02157 2.50892 4.35585 1.61739ZM8.86347 1.75C7.55544 1.75001 6.27679 2.13789 5.1892 2.86459C4.1016 3.5913 3.25392 4.6242 2.75335 5.83268C2.25279 7.04116 2.12182 8.37093 2.377 9.65384C2.63219 10.9368 3.26207 12.1152 4.187 13.0401C5.11193 13.965 6.29036 14.5949 7.57327 14.8501C8.85618 15.1053 10.186 14.9743 11.3944 14.4738C12.6029 13.9732 13.6358 13.1255 14.3625 12.0379C15.0892 10.9503 15.4771 9.67167 15.4771 8.36364M8.86352 1.75C10.6175 1.75012 12.2996 2.44695 13.5399 3.68721C14.7802 4.92748 15.477 6.6096 15.4771 8.36359" fill="#C4C4CC"/>
</svg>
